<?xml version="1.0" encoding="utf-8"?>
<!-- Generator: Adobe Illustrator 24.1.2, SVG Export Plug-In . SVG Version: 6.00 Build 0)  -->
<svg version="1.1" id="Layer_1" xmlns="http://www.w3.org/2000/svg" xmlns:xlink="http://www.w3.org/1999/xlink" x="0px" y="0px"
	 width="144px" height="144px" viewBox="0 0 144 144" style="enable-background:new 0 0 144 144;" xml:space="preserve">
<style type="text/css">
	.st0{fill:#B0D0E4;}
	.st1{fill:#006EB8;}
	.st2{fill:#104871;}
</style>
<g>
	<path class="st0" d="M96.4,49.2v45.6c0,1.1-0.9,2-2,2H49.6c-1.1,0-2-0.9-2-2V49.2c0-1.1,0.9-2,2-2h44.9
		C95.5,47.3,96.4,48.1,96.4,49.2z"/>
	<path class="st1" d="M55.9,65.6h-2.6V55c0-1.5,1.2-2.7,2.7-2.7h10.3v2.6H56c-0.1,0-0.1,0.1-0.1,0.1V65.6z"/>
	<path class="st1" d="M90.7,65.4h-2.6V55.1c0-0.1-0.1-0.2-0.1-0.2H77.4v-2.6H88c1.5,0,2.7,1.2,2.7,2.7V65.4z"/>
	<path class="st1" d="M88,91.8H77.6v-2.6H88c0.1,0,0.1-0.1,0.1-0.2V78.4h2.6V89C90.7,90.5,89.5,91.8,88,91.8z"/>
	<path class="st1" d="M66.6,91.6H56c-1.5,0-2.7-1.2-2.7-2.7V78.6h2.6v10.3c0,0.1,0.1,0.1,0.1,0.1h10.6V91.6z"/>
	<rect x="28.5" y="45.5" class="st0" width="10.3" height="2.6"/>
	<rect x="28.5" y="55.6" class="st0" width="10.3" height="2.6"/>
	<rect x="28.5" y="65.7" class="st0" width="10.3" height="2.6"/>
	<rect x="28.5" y="75.8" class="st0" width="10.3" height="2.6"/>
	<rect x="28.5" y="85.9" class="st0" width="10.3" height="2.6"/>
	<rect x="28.5" y="96" class="st0" width="10.3" height="2.6"/>
	<rect x="105.2" y="45.5" class="st0" width="10.3" height="2.6"/>
	<rect x="105.2" y="55.6" class="st0" width="10.3" height="2.6"/>
	<rect x="105.2" y="65.7" class="st0" width="10.3" height="2.6"/>
	<rect x="105.2" y="75.8" class="st0" width="10.3" height="2.6"/>
	<rect x="105.2" y="85.9" class="st0" width="10.3" height="2.6"/>
	<rect x="105.2" y="96" class="st0" width="10.3" height="2.6"/>
	<rect x="96" y="28.5" class="st0" width="2.6" height="10.3"/>
	<rect x="85.9" y="28.5" class="st0" width="2.6" height="10.3"/>
	<rect x="75.8" y="28.5" class="st0" width="2.6" height="10.3"/>
	<rect x="65.7" y="28.5" class="st0" width="2.6" height="10.3"/>
	<rect x="55.6" y="28.5" class="st0" width="2.6" height="10.3"/>
	<rect x="45.4" y="28.5" class="st0" width="2.6" height="10.3"/>
	<rect x="96" y="105.2" class="st0" width="2.6" height="10.3"/>
	<rect x="85.9" y="105.2" class="st0" width="2.6" height="10.3"/>
	<rect x="75.8" y="105.2" class="st0" width="2.6" height="10.3"/>
	<rect x="65.7" y="105.2" class="st0" width="2.6" height="10.3"/>
	<rect x="55.6" y="105.2" class="st0" width="2.6" height="10.3"/>
	<rect x="45.4" y="105.2" class="st0" width="2.6" height="10.3"/>
	<path class="st2" d="M87.2,105.7H77H66.9H56.8H46.7h-5.3c-1.5,0-2.7-1.2-2.7-2.7v-5.8V87.2V77.1V66.9V56.8V46.7V41
		c0-1.5,1.2-2.7,2.7-2.7h5.3h10.1h10.1H77h10.1h10.1h5.3c1.5,0,2.7,1.2,2.7,2.7v5.8v10.1v10.1v10.1v10.1v10.1v5.8
		c0,1.5-1.2,2.7-2.7,2.7h-5.3H87.2z M96.4,94.8V49.2c0-1.1-0.9-2-2-2H49.6c-1.1,0-2,0.9-2,2v45.6c0,1.1,0.9,2,2,2h44.9
		C95.5,96.8,96.4,95.9,96.4,94.8z"/>
</g>
<g>
</g>
<g>
</g>
<g>
</g>
<g>
</g>
<g>
</g>
<g>
</g>
</svg>
