<?xml version="1.0" encoding="utf-8"?>
<!-- Generator: Adobe Illustrator 24.1.2, SVG Export Plug-In . SVG Version: 6.00 Build 0)  -->
<svg version="1.1" id="Layer_1" xmlns="http://www.w3.org/2000/svg" xmlns:xlink="http://www.w3.org/1999/xlink" x="0px" y="0px"
	 width="180px" height="144px" viewBox="0 0 180 144" style="enable-background:new 0 0 180 144;" xml:space="preserve">
<style type="text/css">
	.st0{fill:#DCEBF3;}
	.st1{fill:#231F20;}
	.st2{opacity:0.94;fill:#104871;}
	.st3{fill:#104871;}
	.st4{opacity:0.87;fill:#5B85A3;}
	.st5{opacity:0.15;fill:#B0D0E4;}
	.st6{opacity:0.15;fill:#DCEBF3;}
	.st7{fill:#0B1B30;}
	.st8{fill:#F2A900;}
	.st9{opacity:0.94;fill:#5B85A3;}
	.st10{fill:#9BA1A4;}
	.st11{fill:#D4873B;}
	.st12{opacity:0.31;fill:#B0D0E4;}
	.st13{fill:#B0D0E4;}
	.st14{fill:#2B2C2B;}
	.st15{fill:#B43536;}
	.st16{fill:#5B85A3;}
	.st17{fill:#D2DAEE;}
	.st18{opacity:0.5;fill:#114766;}
	.st19{fill:#FFFFFF;}
	.st20{fill:#F1F3F3;}
	.st21{fill:#E2E3E3;}
	.st22{opacity:0.14;fill:#DCEBF3;}
	.st23{opacity:8.000000e-02;fill:#DCEBF3;}
	.st24{opacity:0.23;fill:#B0D0E4;}
	.st25{opacity:0.23;fill:#B0B0B0;}
	.st26{opacity:0.45;fill:#E4EAF6;}
	.st27{fill:#010101;}
</style>
<g>
	<path class="st0" d="M118.2,51c0,0,5.4-3.3,6.9-2.7c0.8,0.3,0.2,3.8,0.2,3.8L118.2,51z"/>
	<polygon class="st1" points="9.4,93.1 13.4,96.2 44.6,96.8 45.7,95 46.1,91.8 45.6,88.4 44.6,86.1 42.6,82.3 41.9,81 35.2,76.2 
		27.7,74.5 19.7,77 14.8,80.5 12,87.5 	"/>
	<polygon class="st1" points="125.8,95.1 129,96.8 160.2,95.1 162.3,92 161.6,88.5 158.5,81.5 154.6,76.7 148.9,74.4 143.2,74.4 
		137.4,75.6 133.8,77.7 130.7,81.2 128.2,86.5 	"/>
	<polygon class="st2" points="102,50.2 100.7,66.8 135.8,64.6 137.4,55.7 131,53.5 121.2,51.8 110.7,50.7 	"/>
	<path class="st3" d="M76.2,68.3c-0.6,0.1-1.2,0.1-1.8,0.2L73,63.9c-0.1-0.5,0.1-1,0.6-1.1c0.1,0,0.2,0,0.3,0c0.4,0,0.8,0.3,0.9,0.7
		L76.2,68.3z"/>
	<path class="st3" d="M96,63c-1.2,1.3-1.9-0.6-1.9-0.6c-1.1-1.6,0.1-6.3,0.1-6.3s1.9-1.3,3.2,0.4C97.3,56.5,97.7,61.1,96,63z"/>
	<path class="st3" d="M95.3,74.7c-0.1,0.9-0.9,1.5-1.8,1.4l0,0c-0.9-0.1-1.5-0.9-1.4-1.8l1.3-9.7c0.1-0.9,0.9-1.5,1.8-1.4l0,0
		c0.9,0.1,1.5,0.9,1.4,1.8L95.3,74.7z"/>
	<polygon class="st4" points="55.9,68.1 98.1,67 99.9,50.7 94.4,50.7 86.9,51.4 81,53.5 74.3,56.2 66,60.8 58.4,65.6 	"/>
	<path class="st5" d="M108.6,63.2c0.7,0.7,5.8-3.3,12.5-9.6c0.6-0.6,1.2-1.1,1.8-1.7c-1.8-0.1-3.8-0.1-6-0.1
		c-0.6,0.6-1.1,1.2-1.6,1.8C110.7,58.9,108,62.7,108.6,63.2z"/>
	<path class="st5" d="M125.6,60.2c0.3,0.3,2.7-1.6,5.8-4.7c0.3-0.3,0.6-0.6,0.8-0.8c-0.8,0-1.8,0-2.8-0.1c-0.3,0.3-0.5,0.6-0.7,0.9
		C126.6,58.1,125.3,59.9,125.6,60.2z"/>
	<path class="st6" d="M79.6,63.7c0.8,0.8,6.5-3.7,14-10.7c0.7-0.6,1.3-1.2,2-1.9c-2-0.1-4.2-0.1-6.7-0.1c-0.6,0.7-1.2,1.4-1.8,2
		C81.9,58.9,78.9,63.1,79.6,63.7z"/>
	<path class="st6" d="M71,61.2c0.3,0.3,2.7-1.6,5.8-4.7c0.3-0.3,0.6-0.6,0.8-0.8c-0.8,0-1.8,0-2.8-0.1c-0.3,0.3-0.5,0.6-0.7,0.9
		C71.9,59.1,70.7,60.9,71,61.2z"/>
	<polygon class="st7" points="64.4,62.1 64.4,67.8 58.4,67.8 58.4,66.8 	"/>
	<polygon class="st7" points="103.2,50.7 101.8,67 95.3,67.3 98.4,50.7 	"/>
	<polygon class="st7" points="135.1,55.2 132.9,66.3 143.7,63.2 144.9,57.9 	"/>
	<path class="st0" d="M179.2,76.5c-0.5-0.5-1-1-1.3-1.4c-1.9-2.3-1.6-3.5-1.6-3.5c0-0.2,0-0.3,0-0.5c0.1-1.5,0.1-2.6,0-3.6
		c-0.2-1.3-0.6-2.1-0.9-2.6c-0.2-0.3-0.4-0.5-0.4-0.5c0,0,0,0,0,0c3.1-2.1,0.4-1.8,0-1.8c-0.9,0-1.8,0.1-2.7,0c-0.7,0-1.4,0-2-0.1
		c-3.2-0.2-5.7-0.5-5.7-0.5c-1.6-0.2-3.3-0.5-5-0.9c-1.3-0.3-2.7-0.7-3.9-1c-3.8-1.1-6.7-2.3-6.7-2.3c-16.2-5.8-26.9-7.2-26.9-7.2
		c-11.9-1.7-24.6-1.2-24.6-1.2C88.5,50,83.3,51.2,81,51.8c-0.9,0.3-1.3,0.4-1.3,0.4c-1.9,0.6-4.1,1.5-6.5,2.7
		c-1.8,0.8-3.6,1.7-5.4,2.7c-6.9,3.6-13.5,7.6-14,7.9c0,0,0,0,0,0c-1.7,0-2.6-0.8-2.6-0.8c-1.4,0-5.1,0.1-5.1,0.1
		c-14.9,0.2-27.8,3.6-27.8,3.6c-1.9,0.5-3.5,1-4.9,1.5c-4.2,1.5-6.7,2.8-8.1,3.7c-1.2,0.8-1.6,1.2-1.6,1.2l-1,2.2
		C2,79,1.7,80.6,1.7,82.1c0,0.3,0,0.6,0,0.8C1.8,86.3,3,88.7,3,88.7c-0.4,0.7-0.7,1.3-0.9,1.8c-0.6,1.2-0.7,1.5-0.7,1.7c0,0,0,0,0,0
		c-3.2,1.1,0.5,2.4,0.5,2.4c8.8,1.8,11.5,1.7,11.5,1.7c0.1,0,0.1,0,0.2,0c-0.2-0.9-0.3-1.8-0.3-2.8c0-0.2,0-0.3,0-0.5
		c0-4.1,1.4-7.9,3.7-10.8c2.9-3.7,7.3-6,12.1-6c4.9,0,9.3,2.3,12.2,6c2.3,2.9,3.7,6.7,3.7,10.8c0,1.4-0.2,2.7-0.5,4h83.9
		c0.2,0,0.5,0,0.7,0c-0.3-1.3-0.5-2.6-0.5-4c0-5.9,2.9-11.1,7.2-14.1c2.5-1.7,5.5-2.7,8.6-2.7c2.8,0,5.5,0.8,7.8,2.2c0,0,0,0,0,0
		c4.8,2.9,8.1,8.4,8.1,14.6c0,0.8-0.1,1.6-0.2,2.4c6.4-0.6,12.4-2.7,12.4-2.7c4.8-1.4,6-4.1,6.7-6.3
		C180.7,81.4,179.2,76.5,179.2,76.5z M59.5,66.9c0-0.1,0.1-0.1,0.1-0.2c0.3-0.3,0.5-0.5,0.8-0.8c1.8-1.7,4.4-3.5,6.7-4.9
		c2.6-1.5,4.8-2.6,4.8-2.6c8.1-4.4,14.3-5.6,14.3-5.6c6-1.4,14.2-1.5,14.2-1.5c7.7-0.2,15.4,0.6,20.9,1.6
		c13.3,2.6,20.7,6.1,20.7,6.1c2.7,1,0.5,2,0.5,2c-1,0.5-1.8,0.9-2.6,1.2c-1.1,0.5-2,0.8-2.7,1.1c-0.1,0-0.1,0-0.2,0.1
		c-1.4,0.5-2,0.5-2,0.5c-2.2,0.2-4.4,0.3-6.6,0.5c-10.2,0.7-20.1,1.3-29.3,1.7c-0.1,0-0.1,0-0.2,0c-12.2,0.6-23.2,1-32.1,1.2
		c-3.7,0.1-6.9,0-7.5,0c-0.1,0-0.1,0-0.1,0C59.3,67,59.4,66.9,59.5,66.9z M139.5,65.1c0-0.1-0.1-0.3-0.1-0.4
		c-0.1-0.1-0.9-0.5-2.3-1.5c-1.4,0.5-2,0.5-2,0.5c-2.2,0.2-4.4,0.3-6.6,0.5c-10.2,0.7-20.1,1.3-29.3,1.7c-0.1,0-0.1,0-0.2,0
		c-12.2,0.6-23.2,1-32.1,1.2c-3.7,0.1-6.9,0-7.5,0c-0.6,0.5-1.9,1.8-2.4,3.3c0,0.1,0,0.5-0.1,1.2c-0.1,1.8-0.3,5.5-0.1,10.5
		c0.1,3.4,0.4,7.5,1,11.8c1,0,13.2,0,26.7,0c9.2,0,19.1-0.1,26.3-0.2c3-0.1,5.6-0.1,7.5-0.2h0c0,0,0.9,0,2.1-0.4
		c1.1-0.4,2.6-1.2,3.7-3l0,0c0.1-0.1,3.7-5.1,7.1-9.9c0.3-0.4,0.5-0.7,0.8-1.1c1.7-2.4,3.3-4.7,4-5.9l0,0c0,0,1.6-2,2.6-4.2
		C139.2,67.6,139.7,66.2,139.5,65.1z M139.5,65.1c0-0.1-0.1-0.3-0.1-0.4c-0.1-0.1-0.9-0.5-2.3-1.5c-1.4,0.5-2,0.5-2,0.5
		c-2.2,0.2-4.4,0.3-6.6,0.5c-10.2,0.7-20.1,1.3-29.3,1.7c-0.1,0-0.1,0-0.2,0c-12.2,0.6-23.2,1-32.1,1.2c-3.7,0.1-6.9,0-7.5,0
		c-0.6,0.5-1.9,1.8-2.4,3.3c0,0.1,0,0.5-0.1,1.2c-0.1,1.8-0.3,5.5-0.1,10.5c0.1,3.4,0.4,7.5,1,11.8c1,0,13.2,0,26.7,0
		c9.2,0,19.1-0.1,26.3-0.2c3-0.1,5.6-0.1,7.5-0.2h0c0,0,0.9,0,2.1-0.4c1.1-0.4,2.6-1.2,3.7-3l0,0c0.1-0.1,3.7-5.1,7.1-9.9
		c0.3-0.4,0.5-0.7,0.8-1.1c1.7-2.4,3.3-4.7,4-5.9l0,0c0,0,1.6-2,2.6-4.2C139.2,67.6,139.7,66.2,139.5,65.1z"/>
	<path class="st8" d="M147.4,68.6c2.4-0.1,5.1-0.2,8-0.4c-3.1,1.3-6.1,2.6-9.1,4c-5.2,2.4-10.3,5.1-15.3,7.9
		c-5,2.9-9.9,5.9-14.6,9.2c-2,1.4-3.9,2.8-5.8,4.2c-1.4,1.1-2.9,2.2-4.3,3.4H80.7c0.5-0.5,1.1-0.9,1.6-1.4c0.7-0.6,1.5-1.2,2.2-1.8
		c0.5-0.4,1-0.8,1.6-1.2c2.5-1.9,5.1-3.7,7.6-5.4c5.2-3.4,10.5-6.5,15.9-9.4c5.9-3.1,12-5.9,18.2-8.4c3.4-0.1,7-0.3,10.8-0.4
		C141.4,68.9,144.4,68.8,147.4,68.6z"/>
	<path class="st8" d="M155.8,60.2c1.2,0.4,2.5,0.7,3.9,1c-2.9,0.1-5.9,0.2-8.8,0.3C152.5,61.1,154.1,60.6,155.8,60.2z"/>
	<path class="st9" d="M82.4,52c-14.3,5.2-24.9,13.4-26,13.6c-1.1,0.2-2.3,0-2.7-0.1c0.5-0.3,7.1-4.3,14-7.9l5.4-2.7
		c2.4-1.1,4.6-2.1,6.5-2.7c0,0,0.4-0.2,1.3-0.4L82.4,52z"/>
	<path class="st10" d="M145.4,59c0,0-7.4-3.2-20.6-5.7c-1.9-0.4-4.2-0.7-6.7-1c1.2,0.2,2.3,0.4,3.3,0.6c13.2,2.6,20.6,6,20.6,6
		c2.7,1,0.5,2,0.5,2c-5.6,2.7-7.3,2.8-7.3,2.8c-6.3,0.5-4.1,0.4,3.4-0.1c0,0,1.7-0.1,7.3-2.6C145.9,60.9,148,59.9,145.4,59z"/>
	<path class="st11" d="M170.3,62.7c-5,1.7-10,3.6-14.8,5.6c-2.9,0.1-5.6,0.3-8,0.4c-3.1,0.1-6,0.3-8.9,0.4
		c-3.8,0.2-7.4,0.3-10.8,0.4c3.9-1.6,7.8-3,11.7-4.4c1.2-0.4,2.4-0.8,3.6-1.2c2.6-0.8,5.1-1.6,7.7-2.3c3-0.1,5.9-0.2,8.8-0.3
		c1.7,0.4,3.4,0.7,5,0.9c0,0,0,0,0.1,0c0,0,0,0,0.1,0c0.1,0,0.1,0,0.2,0c0,0,0,0,0.1,0c0,0,0,0,0.1,0c0,0,0.1,0,0.1,0
		c0.1,0,0.3,0,0.4,0.1c0,0,0.1,0,0.1,0c0.1,0,0.1,0,0.2,0c0,0,0,0,0,0c0,0,0.1,0,0.1,0c0,0,0.1,0,0.1,0c0,0,0.1,0,0.1,0
		c0.1,0,0.2,0,0.3,0c0.1,0,0.2,0,0.3,0c0.1,0,0.3,0,0.5,0c0.1,0,0.2,0,0.2,0c0,0,0,0,0,0c0.1,0,0.2,0,0.3,0c0.1,0,0.1,0,0.2,0
		c0.2,0,0.4,0,0.7,0.1c0.1,0,0.1,0,0.2,0C169.4,62.6,169.8,62.6,170.3,62.7z"/>
	<path class="st12" d="M13.3,93.4c0,0.9,0.1,1.9,0.3,2.8c-0.1,0-0.1,0-0.2,0c0,0-2.7,0.2-11.5-1.7c0,0-3.7-1.3-0.5-2.4c0,0,0,0,0,0
		c0-0.1,0.1-0.5,0.7-1.7c0.2-0.5,0.5-1,0.9-1.8c0,0-1.2-2.4-1.3-5.8c0-0.3,0-0.5,0-0.8c3.7,0.1,8.8,0.1,15.3,0.1
		c-2.3,2.9-3.7,6.7-3.7,10.8C13.3,93.1,13.3,93.3,13.3,93.4z"/>
	<path class="st12" d="M135.3,79.2c-4.3,3-6.7,7.8-6.7,13.7c0,1.4,0.2,2.7,0.5,4c-0.3,0-0.5,0-0.7,0H44.5c0.3-1.3,0.5-2.6,0.5-4
		c0-4.1-1.4-7.9-3.7-10.8l0.2,0c0,0,5.4,0,15.4-0.1C72,81.8,134,79.3,135.3,79.2z"/>
	<path class="st12" d="M179.2,86.3c-0.7,2.2-1.9,4.9-6.7,6.3c0,0-6,2.2-12.4,2.7c0.1-0.8,0.2-1.6,0.2-2.4c0-6.3-3.2-11.8-8.1-14.6
		c0.1,0,6.6,0.2,25.7-3.3c0.4,0.4,0.8,0.9,1.3,1.4C179.2,76.5,180.7,81.4,179.2,86.3z"/>
	<path class="st7" d="M15.5,91.1c-0.1,7.6,6,13.8,13.6,13.8c7.6,0.1,13.8-6,13.8-13.6c0.1-7.6-6-13.8-13.6-13.8
		C21.7,77.5,15.5,83.5,15.5,91.1z"/>
	<path class="st13" d="M19,91.2c0,5.6,4.6,10.2,10.2,10.2c5.6,0,10.2-4.6,10.2-10.2c0-5.6-4.6-10.2-10.2-10.2
		C23.6,81.1,19,85.6,19,91.2z"/>
	<path class="st1" d="M20.5,91.2c0,0.4,0,0.8,0.1,1.2c0.1,0.5,0.2,1,0.4,1.5c1,3.1,3.8,5.4,7.1,5.8h0c0.4,0.1,0.7,0.1,1.1,0.1
		c0.1,0,0.3,0,0.4,0c3.7-0.2,6.8-2.7,7.8-6.1c0.1-0.5,0.3-1,0.3-1.5c0-0.3,0.1-0.7,0.1-1c0-2.8-1.3-5.3-3.4-6.8
		c-0.4-0.3-0.8-0.6-1.3-0.8c-1.2-0.6-2.6-1-4-1c-1.6,0-3.1,0.4-4.3,1.2c-0.1,0-0.1,0.1-0.2,0.1c-0.4,0.2-0.8,0.5-1.1,0.8
		c0,0-0.1,0.1-0.1,0.1C21.7,86.3,20.5,88.7,20.5,91.2z"/>
	<path class="st7" d="M37.2,93.1c0,0.3-0.2,0.6-0.5,0.6H35c-0.3,0-0.5-0.3-0.5-0.6v-4.5c0-0.3,0.2-0.6,0.5-0.6h1.6
		c0.3,0,0.5,0.3,0.5,0.6V93.1z"/>
	<path class="st7" d="M35.3,90.8c0,3.4-2.8,6.1-6.1,6.1S23,94.2,23,90.8c0-3.4,2.8-6.1,6.1-6.1S35.3,87.4,35.3,90.8z"/>
	<path class="st13" d="M29.4,90l0.7,0.3l4.4-5.9c-0.4-0.3-0.8-0.6-1.3-0.8L29.4,90z"/>
	<path class="st13" d="M23.6,84.7l4.8,5.9l0.5-0.5l-4.1-6.3c-0.1,0-0.1,0.1-0.2,0.1C24.3,84.1,23.9,84.4,23.6,84.7z"/>
	<path class="st13" d="M20.6,92.4c0.1,0.5,0.2,1,0.4,1.5l7.4-2.7L28,90.5L20.6,92.4z"/>
	<path class="st13" d="M28.1,99.8c0.4,0.1,0.7,0.1,1.1,0.1c0.1,0,0.3,0,0.4,0l-0.1-7.8h-0.8L28.1,99.8z"/>
	<path class="st13" d="M30.3,91.3l7.1,2.4c0.1-0.5,0.3-1,0.3-1.5l-7.2-1.7L30.3,91.3z"/>
	<path class="st0" d="M27.5,91.2c0,1,0.8,1.7,1.7,1.7c1,0,1.7-0.8,1.7-1.7c0-1-0.8-1.7-1.7-1.7C28.2,89.5,27.5,90.3,27.5,91.2z"/>
	<path class="st7" d="M27.9,91.2c0,0.7,0.6,1.3,1.3,1.3c0.7,0,1.3-0.6,1.3-1.3c0-0.7-0.6-1.3-1.3-1.3C28.5,90,27.9,90.5,27.9,91.2z"
		/>
	<g>
		<path class="st14" d="M19.7,91.2c0-5.2,4.2-9.5,9.5-9.5c5.2,0,9.5,4.2,9.5,9.5c0,5.2-4.2,9.5-9.5,9.5
			C24,100.7,19.7,96.4,19.7,91.2z M19.9,91.2c0,5.1,4.2,9.3,9.3,9.3c5.1,0,9.3-4.2,9.3-9.3c0-5.1-4.2-9.3-9.3-9.3
			C24.1,81.9,19.9,86.1,19.9,91.2z"/>
	</g>
	<path class="st15" d="M176.3,71.1c-0.5,0-1.1,0-1.5,0c-4.5-0.2-7.2-2.2-7.2-2.2c-2.6-1.8-2-2.6-1.5-3c0.9-0.9,4.6-0.9,7.8-0.9
		c0.5,0,1.1,0,1.6,0C175.9,65.7,176.7,67.5,176.3,71.1z"/>
	<path class="st14" d="M138.2,70c-1,1.7-2.1,3.2-2.1,3.3c-2.3,3.7-11.7,16.6-11.9,16.8c-1.1,1.8-2.7,2.7-3.8,3.1
		c-1.2,0.4-2.1,0.4-2.2,0.4c-9.7,0.4-38.4,0.4-52.5,0.4c-4.8,0-7.9,0-8,0h-0.1l0-0.1c-1.8-13.1-0.8-23.4-0.8-23.6l0,0
		c0.6-1.9,2.3-3.3,2.7-3.6c0,0.1-0.1,0.1-0.1,0.2c-0.1,0.1-0.1,0.1-0.2,0.2c0,0,0,0,0.1,0c-0.6,0.5-1.9,1.8-2.4,3.3
		c0,0.3-1,10.5,0.7,23.4c2,0,47.6,0.1,60.4-0.4h0c0,0,0.9,0,2.1-0.4c1.1-0.4,2.6-1.2,3.7-3l0,0c0.1-0.1,9.5-13.1,11.9-16.8l0,0
		c0-0.1,4.5-5.8,3.4-8.5c-0.1-0.1-0.9-0.5-2.3-1.5c0.1,0,0.1,0,0.2-0.1c1.5,1,2.2,1.4,2.2,1.4l0,0l0,0C140,65.8,139.5,67.6,138.2,70
		z"/>
	<path class="st14" d="M98.8,93.7l-0.2,0C98,82.2,98.7,70.6,99,65.9c0.1,0,0.1,0,0.2,0C98.8,70.6,98.1,82.2,98.8,93.7z"/>
	<path class="st16" d="M5.3,89.3c0,0.9-0.2,1.4-0.7,1.5c-0.9,0.1-1.9,0-2.4-0.1c0-0.1,0-0.1,0-0.2c0,0,0,0,0-0.1
		c0.2-0.5,0.5-1,0.9-1.8c0,0-1.2-2.4-1.3-5.8c0.8-0.1,2.7-0.3,2.9,0.2c0.1,0.3,0.1,0.6,0.2,0.9v0c0,0.2,0.1,0.4,0.1,0.6
		c0,0.1,0,0.2,0,0.2c0,0,0,0,0,0.1C5,85.4,5.1,86,5.1,86.7c0,0.1,0,0.1,0,0.2c0,0.2,0,0.4,0,0.5c0,0.1,0,0.3,0,0.4
		c0,0.1,0,0.3,0,0.4c0,0,0,0.1,0,0.1c0,0,0,0.1,0,0.1C5.3,88.8,5.3,89,5.3,89.3z"/>
	<path class="st17" d="M5.3,89.3C5,89.1,4.7,88,4.5,86.7C4.3,85.2,4.4,84,4.7,84c0,0,0,0,0,0C5,85,5.1,86.2,5.2,87.8
		C5.3,88.4,5.3,88.8,5.3,89.3z"/>
	<path class="st18" d="M96,69.8c0,0-2.5-0.5-3.5-0.5c-1,0.1-2.1,0.4-2.8,0.8l-0.6,0c-0.6,0-1,0.6-1,1c0,0.5,0.5,0.9,1.1,0.8l0.7,0
		c0.7,0.3,1.8,0.5,2.8,0.5c1-0.1,2-0.4,2.7-0.8l0.7,0c0.6,0,1-0.5,1-1C97,70.2,96.5,69.7,96,69.8z"/>
	<path class="st0" d="M88.3,71.2c0,0.4,0.5,0.7,1,0.7c0,0,2.4-0.4,3.3-0.5c0.8,0,3.2,0.1,3.2,0.1c0.5,0,1-0.4,0.9-0.8l0,0
		c0-0.4-0.5-0.7-1-0.7c0,0-2.4,0.4-3.2,0.4c-0.8,0-3.3,0-3.3,0C88.7,70.4,88.3,70.8,88.3,71.2L88.3,71.2z"/>
	<path class="st18" d="M134.2,67.9c0,0-2.5-0.5-3.5-0.5c-1,0.1-2.1,0.4-2.8,0.8l-0.6,0c-0.6,0-1,0.6-1,1c0,0.5,0.5,0.9,1.1,0.8
		l0.7,0c0.7,0.3,1.8,0.5,2.8,0.5c1-0.1,2-0.4,2.7-0.8l0.7,0c0.6,0,1-0.5,1-1C135.3,68.3,134.8,67.8,134.2,67.9z"/>
	<path class="st0" d="M126.6,69.3c0,0.4,0.5,0.7,1,0.7c0,0,2.4-0.4,3.3-0.5c0.8,0,3.2,0.1,3.2,0.1c0.5,0,1-0.4,0.9-0.8l0,0
		c0-0.4-0.5-0.7-1-0.7c0,0-2.4,0.4-3.2,0.4c-0.8,0.1-3.3,0-3.3,0C127,68.5,126.6,68.9,126.6,69.3L126.6,69.3z"/>
	<path class="st7" d="M130.7,91.3c-0.1,7.6,6,13.8,13.6,13.8c7.6,0.1,13.8-6,13.8-13.6c0.1-7.6-6-13.8-13.6-13.8
		C137,77.6,130.8,83.7,130.7,91.3z"/>
	<path class="st13" d="M134.3,91.4c0,5.6,4.6,10.2,10.2,10.2c5.6,0,10.2-4.6,10.2-10.2c0-5.6-4.6-10.2-10.2-10.2
		C138.8,81.2,134.3,85.8,134.3,91.4z"/>
	<path class="st1" d="M135.8,91.4c0,0.4,0,0.8,0.1,1.2c0.1,0.5,0.2,1,0.4,1.5c1,3.1,3.8,5.4,7.1,5.8h0c0.4,0.1,0.7,0.1,1.1,0.1
		c0.1,0,0.3,0,0.4,0c3.7-0.2,6.8-2.7,7.8-6.1c0.1-0.5,0.3-1,0.3-1.5c0-0.3,0.1-0.7,0.1-1c0-2.8-1.3-5.3-3.4-6.8
		c-0.4-0.3-0.8-0.6-1.3-0.8c-1.2-0.6-2.6-1-4-1c-1.6,0-3.1,0.4-4.3,1.2c-0.1,0-0.1,0.1-0.2,0.1c-0.4,0.2-0.8,0.5-1.1,0.8
		c0,0-0.1,0.1-0.1,0.1C136.9,86.5,135.8,88.8,135.8,91.4z"/>
	<path class="st7" d="M151.8,90.7c0.1,0.3,0,0.6-0.2,0.7l-1.4,0.6c-0.3,0.1-0.6,0-0.7-0.3l-1.6-3.8c-0.1-0.3,0-0.6,0.2-0.7l1.4-0.6
		c0.3-0.1,0.6,0,0.7,0.3L151.8,90.7z"/>
	<path class="st7" d="M149.8,91.4c0,3-2.4,5.4-5.4,5.4c-3,0-5.4-2.4-5.4-5.4c0-3,2.4-5.4,5.4-5.4C147.4,86,149.8,88.4,149.8,91.4z"
		/>
	<path class="st13" d="M144.7,90.1l0.7,0.3l4.4-5.9c-0.4-0.3-0.8-0.6-1.3-0.8L144.7,90.1z"/>
	<path class="st13" d="M138.8,84.8l4.8,5.9l0.5-0.5l-4.1-6.3c-0.1,0-0.1,0.1-0.2,0.1C139.6,84.2,139.2,84.5,138.8,84.8z"/>
	<path class="st13" d="M135.9,92.6c0.1,0.5,0.2,1,0.4,1.5l7.4-2.7l-0.3-0.8L135.9,92.6z"/>
	<path class="st13" d="M143.3,99.9c0.4,0.1,0.7,0.1,1.1,0.1c0.1,0,0.3,0,0.4,0l-0.1-7.8H144L143.3,99.9z"/>
	<path class="st13" d="M145.6,91.4l7.1,2.4c0.1-0.5,0.3-1,0.3-1.5l-7.2-1.7L145.6,91.4z"/>
	<path class="st0" d="M142.7,91.4c0,1,0.8,1.7,1.7,1.7c1,0,1.7-0.8,1.7-1.7c0-1-0.8-1.7-1.7-1.7C143.5,89.6,142.7,90.4,142.7,91.4z"
		/>
	<path class="st7" d="M143.2,91.4c0,0.7,0.6,1.3,1.3,1.3c0.7,0,1.3-0.6,1.3-1.3c0-0.7-0.6-1.3-1.3-1.3
		C143.7,90.1,143.2,90.7,143.2,91.4z"/>
	<g>
		<path class="st14" d="M135,91.4c0-5.2,4.2-9.5,9.5-9.5c5.2,0,9.5,4.2,9.5,9.5c0,5.2-4.2,9.5-9.5,9.5
			C139.2,100.8,135,96.6,135,91.4z M135.1,91.4c0,5.1,4.2,9.3,9.3,9.3c5.1,0,9.3-4.2,9.3-9.3c0-5.1-4.2-9.3-9.3-9.3
			C139.3,82.1,135.1,86.2,135.1,91.4z"/>
	</g>
	<path class="st19" d="M69.6,64c-0.1,0.5-0.2,1-0.3,1.4c-0.1,0.1-0.1,0.3-0.2,0.4c-0.2,0.4-0.4,0.7-0.6,0.7c-0.9,0.3-5.1,1.1-6-0.1
		c0,0,0-0.1-0.1-0.1c-0.7-1.2,0.9-2.9,2.6-4.1c1.7-1.2,2.8-1.3,3.9-1c0.3,0.1,0.5,0.4,0.6,0.8C69.7,62.5,69.7,63.2,69.6,64z"/>
	<path class="st0" d="M69.6,64c-0.1,0.5-0.2,1-0.3,1.4c-0.1,0.1-0.1,0.3-0.2,0.4c-0.2,0.4-0.4,0.7-0.6,0.7c-0.9,0.3-5.1,1.1-6-0.1
		c0,0,0-0.1-0.1-0.1c1.4-1.2,4.8-3.8,7.1-4.3C69.7,62.5,69.7,63.2,69.6,64z"/>
	<path class="st13" d="M69.6,64c-0.1,0.5-0.2,1-0.3,1.4H66V64H69.6z"/>
	<path class="st20" d="M175,64.5c-0.9-0.7-1.9-1.3-2.8-1.8c0.9,0,1.8,0,2.7,0C175.5,62.7,178.2,62.4,175,64.5z"/>
	<path class="st21" d="M13.6,96.2c-0.1,0-0.1,0-0.2,0c0,0-2.7,0.2-11.5-1.7c0,0-3.7-1.3-0.5-2.4c0,0,0,0,0,0c3,0.5,7.7,1.1,11.9,1.3
		C13.3,94.4,13.4,95.3,13.6,96.2z"/>
	<g>
		<path class="st16" d="M101.2,39.3l0.1,3.6L97.7,43l-0.1-3.6h0c0-0.1,0.1-0.1,0.2-0.2c0.2-0.1,0.5-0.2,1-0.3c0.2,0,0.4,0,0.7,0
			c0.5,0,0.9,0,1.3,0.1c0.2,0,0.4,0.1,0.5,0.2C101.2,39.2,101.2,39.3,101.2,39.3L101.2,39.3z"/>
		
			<rect x="97.6" y="40.5" transform="matrix(0.9996 -2.929647e-02 2.929647e-02 0.9996 -1.1616 2.9309)" class="st7" width="3.6" height="1.3"/>
		<path class="st22" d="M98.7,39l0.1,4l-1.2,0l-0.1-3.6h0c0-0.1,0.1-0.1,0.2-0.2C98,39.1,98.3,39,98.7,39z"/>
		<path class="st23" d="M101.2,39.3l0.1,3.6l-0.6,0l-0.1-3.9c0.2,0,0.4,0.1,0.5,0.2C101.2,39.2,101.2,39.3,101.2,39.3L101.2,39.3z"
			/>
	</g>
	<polygon class="st11" points="114.7,43.2 113.7,45.4 112.2,48.5 87.1,49.3 82.8,46.5 83,46.3 87.7,42.4 107.3,41.8 	"/>
	<polygon class="st7" points="113.7,45.4 112.2,48.5 87.1,49.3 82.8,46.5 83,46.3 	"/>
	<g>
		<path class="st7" d="M107.7,43.3c0,0.8-1,1.4-2.2,1.5c-1.2,0-2.3-0.6-2.3-1.4c0-0.8,1-1.4,2.2-1.5C106.6,42,107.6,42.6,107.7,43.3
			z"/>
		<path class="st16" d="M107.2,41l0.1,2.5c0,0.2-0.3,0.5-0.7,0.6c-0.2,0.1-0.5,0.1-0.8,0.2c-0.1,0-0.2,0-0.3,0c-0.3,0-0.6,0-0.8-0.1
			c-0.6-0.1-1-0.3-1-0.6l-0.1-2.5L107.2,41z"/>
		<path class="st7" d="M107.2,41.8l0,1c0,0.4-0.8,0.8-1.8,0.8c-1,0-1.8-0.3-1.8-0.7l0-1l0,0c0.1,0.4,0.9,0.6,1.8,0.6
			C106.3,42.5,107.1,42.2,107.2,41.8L107.2,41.8z"/>
		<path class="st22" d="M104.5,40.7l0.1,3.5c-0.6-0.1-1-0.3-1-0.6l-0.1-2.5c0-0.1,0.1-0.2,0.2-0.3L104.5,40.7z"/>
		<path class="st23" d="M107.2,41l0.1,2.5c0,0.2-0.3,0.5-0.7,0.6l-0.1-3.4l0.6,0C107.1,40.8,107.2,40.9,107.2,41z"/>
		<path class="st13" d="M107.2,41c0,0.2-0.3,0.5-0.7,0.6c-0.3,0.1-0.7,0.2-1.1,0.2c-0.3,0-0.6,0-0.8-0.1c-0.6-0.1-1-0.3-1-0.6
			c0-0.1,0.1-0.2,0.2-0.3c0.3-0.3,0.9-0.4,1.6-0.5c0.8,0,1.5,0.2,1.7,0.4C107.1,40.8,107.2,40.9,107.2,41z"/>
	</g>
	<g>
		
			<rect x="84.8" y="45.9" transform="matrix(0.9996 -2.943006e-02 2.943006e-02 0.9996 -1.3376 2.548)" class="st7" width="2.3" height="1.7"/>
	</g>
	<g>
		<polygon class="st7" points="92.3,50.3 89.6,50.4 90,47 91.8,47 		"/>
	</g>
	<g>
		<polygon class="st7" points="109.1,49.8 106.3,49.9 106.7,46.5 108.5,46.5 		"/>
	</g>
	<g>
		
			<rect x="111.4" y="45.1" transform="matrix(0.9996 -2.922554e-02 2.922554e-02 0.9996 -1.2943 3.3096)" class="st7" width="2.3" height="1.7"/>
	</g>
	<g>
		<path class="st7" d="M92.3,43.8c0,0.8-1,1.4-2.2,1.5c-1.2,0-2.3-0.6-2.3-1.4c0-0.8,1-1.4,2.2-1.5C91.2,42.5,92.2,43.1,92.3,43.8z"
			/>
		<path class="st16" d="M91.8,41.5l0.1,2.5c0,0.2-0.3,0.5-0.7,0.6c-0.2,0.1-0.5,0.1-0.8,0.2c-0.1,0-0.2,0-0.3,0
			c-0.3,0-0.6,0-0.8-0.1c-0.6-0.1-1-0.3-1-0.6l-0.1-2.5L91.8,41.5z"/>
		<path class="st7" d="M91.8,42.3l0,1c0,0.4-0.8,0.8-1.8,0.8c-1,0-1.8-0.3-1.8-0.7l0-1l0,0c0.1,0.4,0.9,0.6,1.8,0.6
			C90.9,43,91.7,42.7,91.8,42.3L91.8,42.3z"/>
		<path class="st22" d="M89.1,41.3l0.1,3.5c-0.6-0.1-1-0.3-1-0.6l-0.1-2.5c0-0.1,0.1-0.2,0.2-0.3L89.1,41.3z"/>
		<path class="st23" d="M91.8,41.5l0.1,2.5c0,0.2-0.3,0.5-0.7,0.6L91,41.3l0.6,0C91.7,41.3,91.7,41.4,91.8,41.5z"/>
		<path class="st13" d="M91.8,41.5c0,0.2-0.3,0.5-0.7,0.6c-0.3,0.1-0.7,0.2-1.1,0.2c-0.3,0-0.6,0-0.8-0.1c-0.6-0.1-1-0.3-1-0.6
			c0-0.1,0.1-0.2,0.2-0.3c0.3-0.3,0.9-0.4,1.6-0.5c0.8,0,1.5,0.2,1.7,0.4C91.7,41.3,91.7,41.4,91.8,41.5z"/>
	</g>
	<path class="st24" d="M139.9,62.1c3.5-0.2,7.2-0.4,10.9-0.5c-2.6,0.7-5.1,1.5-7.7,2.3c-1.2,0.4-2.4,0.8-3.6,1.2
		c-3.9,1.3-7.8,2.8-11.7,4.4c-30,1.1-46,1.4-63.3,1.9c-2.5,0.1-5,0.1-7.5,0.2c-20.8,0.7-40.4,1.6-51.8,2.2c1.4-0.9,3.9-2.3,8.1-3.7
		c18-2.7,38.4-3.8,47.2-4.2c-0.3,0.3-0.6,0.6-0.8,0.8c0,0.1-0.1,0.1-0.1,0.2c-0.1,0.1-0.1,0.1-0.2,0.2c0,0,0,0,0.1,0
		c0.7,0,3.8,0.1,7.5,0c8.9-0.2,19.9-0.6,32.1-1.2c0.1,0,0.1,0,0.2,0c9.2-0.4,19.1-1,29.3-1.7c2.2-0.1,4.4-0.3,6.6-0.5
		c0,0,0.5,0,2-0.5c0.1,0,0.1,0,0.2-0.1C137.9,62.9,138.8,62.6,139.9,62.1z"/>
	<path class="st25" d="M168.7,62.6c-0.2,0-0.5,0-0.7-0.1C168.3,62.5,168.5,62.6,168.7,62.6z"/>
	<path class="st25" d="M175.4,65c0.3,0.4,0.7,1.3,0.9,2.6c-7.4,0-14.6,0.4-20.9,0.7c4.9-2,9.8-3.9,14.8-5.6c-0.5,0-0.9,0-1.4-0.1
		c1.8,0.1,4,0.2,6.1,0.1c0.5,0,3.1-0.3,0,1.8C175,64.5,175.2,64.6,175.4,65z"/>
	<path class="st16" d="M17.5,74.2c-0.6,0.3-1.3,0.7-1.9,1c-1,0.5-2.1,1.1-3.1,1.5c-1.2,0.6-2.3,1.1-3.1,1.5c-1,0.5-1.6,0.7-1.6,0.7
		c-1.5,0-3.2-0.2-3.2-0.2c0-0.1-0.1-0.1-0.1-0.2c-0.5-1.3-0.5-2.5-0.5-2.5c3.5-2,8-3.3,10.8-3.4c0,0,0.1,0,0.1,0c1.2,0,2,0.3,2,0.3
		c0.6,0.3,0.8,0.5,0.9,0.7C17.7,74,17.5,74.2,17.5,74.2z"/>
	<path class="st3" d="M15.5,75v0.2c-1,0.5-2.1,1.1-3.1,1.5c-1.2,0.6-2.3,1.1-3.1,1.5L6.1,78v-2.6l3-0.2L15.5,75z"/>
	<path class="st13" d="M17.5,74.2c-0.6,0.3-1.3,0.7-1.9,1c-1,0.5-2.1,1.1-3.1,1.5l-3.3-0.1v-2.4l8.7-0.4
		C17.7,74,17.5,74.2,17.5,74.2z"/>
	<path class="st26" d="M14.8,72.7C9,75,5.9,77.2,4.4,78.6c-0.5-1.3-0.5-2.5-0.5-2.5c3.5-2,8-3.3,10.8-3.4
		C14.7,72.7,14.8,72.7,14.8,72.7z"/>
	<path class="st27" d="M60.5,74.7l0.7-0.1c0,0.2,0.1,0.4,0.2,0.5c0.1,0.1,0.3,0.2,0.5,0.2c0.2,0,0.4,0,0.5-0.1
		c0.1-0.1,0.2-0.2,0.2-0.3c0-0.1,0-0.2-0.1-0.2c0-0.1-0.1-0.1-0.2-0.1c-0.1,0-0.3-0.1-0.6-0.2c-0.4-0.1-0.6-0.2-0.8-0.3
		c-0.2-0.2-0.3-0.4-0.3-0.7c0-0.2,0-0.3,0.1-0.5c0.1-0.2,0.2-0.3,0.4-0.3c0.2-0.1,0.4-0.1,0.7-0.1c0.4,0,0.8,0.1,1,0.3
		c0.2,0.2,0.3,0.4,0.3,0.8l-0.7,0c0-0.2-0.1-0.3-0.2-0.4c-0.1-0.1-0.2-0.1-0.4-0.1c-0.2,0-0.4,0-0.5,0.1c-0.1,0.1-0.1,0.1-0.1,0.2
		c0,0.1,0,0.2,0.1,0.2c0.1,0.1,0.3,0.2,0.6,0.2c0.3,0.1,0.6,0.2,0.7,0.2c0.2,0.1,0.3,0.2,0.4,0.3c0.1,0.1,0.1,0.3,0.1,0.5
		c0,0.2-0.1,0.4-0.2,0.6c-0.1,0.2-0.3,0.3-0.5,0.4c-0.2,0.1-0.4,0.1-0.7,0.1c-0.4,0-0.8-0.1-1-0.3C60.7,75.4,60.6,75.1,60.5,74.7z"
		/>
	<path class="st27" d="M65.4,75.1l0.7,0.1c-0.1,0.2-0.2,0.4-0.4,0.6c-0.2,0.1-0.4,0.2-0.7,0.2c-0.4,0-0.8-0.1-1-0.4
		c-0.2-0.2-0.2-0.5-0.2-0.9c0-0.4,0.1-0.7,0.3-1c0.2-0.2,0.5-0.4,0.8-0.4c0.4,0,0.7,0.1,0.9,0.4c0.2,0.2,0.3,0.6,0.3,1.1h-1.7
		c0,0.2,0.1,0.3,0.2,0.5c0.1,0.1,0.2,0.2,0.4,0.2c0.1,0,0.2,0,0.3-0.1C65.3,75.3,65.3,75.2,65.4,75.1z M65.4,74.4
		c0-0.2-0.1-0.3-0.1-0.4c-0.1-0.1-0.2-0.1-0.3-0.1c-0.1,0-0.3,0.1-0.4,0.2c-0.1,0.1-0.1,0.2-0.1,0.4H65.4z"/>
	<path class="st27" d="M66.6,75.8v-3.4h0.7v3.4H66.6z"/>
	<path class="st27" d="M67.6,73.4H68v-0.2c0-0.2,0-0.4,0.1-0.5c0-0.1,0.1-0.2,0.2-0.3c0.1-0.1,0.3-0.1,0.5-0.1c0.2,0,0.4,0,0.6,0.1
		l-0.1,0.5c-0.1,0-0.2,0-0.3,0c-0.1,0-0.2,0-0.2,0.1c0,0-0.1,0.1-0.1,0.3v0.2h0.5v0.5h-0.5v2H68v-2h-0.4V73.4z"/>
	<path class="st27" d="M69.4,74.9v-0.7h1.3v0.7H69.4z"/>
	<path class="st27" d="M73.4,75.8h-0.6v-0.4c-0.1,0.1-0.2,0.2-0.4,0.3c-0.1,0.1-0.3,0.1-0.4,0.1c-0.3,0-0.5-0.1-0.7-0.3
		c-0.2-0.2-0.3-0.6-0.3-1c0-0.4,0.1-0.7,0.3-1c0.2-0.2,0.4-0.3,0.8-0.3c0.3,0,0.5,0.1,0.7,0.3v-1.2h0.7V75.8z M71.6,74.5
		c0,0.3,0,0.5,0.1,0.6c0.1,0.2,0.3,0.3,0.4,0.3c0.2,0,0.3-0.1,0.4-0.2c0.1-0.1,0.2-0.3,0.2-0.6c0-0.3-0.1-0.5-0.2-0.6
		c-0.1-0.1-0.2-0.2-0.4-0.2c-0.2,0-0.3,0.1-0.4,0.2C71.7,74.1,71.6,74.3,71.6,74.5z"/>
	<path class="st27" d="M74.7,75.8H74v-2.5h0.6v0.4c0.1-0.2,0.2-0.3,0.3-0.3c0.1-0.1,0.2-0.1,0.3-0.1c0.2,0,0.3,0,0.4,0.1L75.4,74
		c-0.1-0.1-0.2-0.1-0.3-0.1c-0.1,0-0.2,0-0.2,0.1c-0.1,0.1-0.1,0.1-0.2,0.3c0,0.1-0.1,0.4-0.1,0.8V75.8z"/>
	<path class="st27" d="M75.9,73v-0.6h0.7V73H75.9z M75.9,75.8v-2.5h0.7v2.5H75.9z"/>
	<path class="st27" d="M77.9,75.8l-1-2.5h0.7l0.5,1.3l0.1,0.4c0-0.1,0.1-0.2,0.1-0.2c0-0.1,0-0.1,0.1-0.2l0.5-1.3h0.7l-1,2.5H77.9z"
		/>
	<path class="st27" d="M79.9,73v-0.6h0.7V73H79.9z M79.9,75.8v-2.5h0.7v2.5H79.9z"/>
	<path class="st27" d="M83.5,75.8h-0.7v-1.3c0-0.3,0-0.4,0-0.5c0-0.1-0.1-0.1-0.1-0.2c-0.1,0-0.1-0.1-0.2-0.1c-0.1,0-0.2,0-0.3,0.1
		C82.1,74,82,74,82,74.1c0,0.1-0.1,0.3-0.1,0.6v1.1h-0.7v-2.5h0.6v0.4c0.2-0.3,0.5-0.4,0.8-0.4c0.1,0,0.3,0,0.4,0.1
		c0.1,0.1,0.2,0.1,0.3,0.2c0.1,0.1,0.1,0.2,0.1,0.3c0,0.1,0,0.3,0,0.4V75.8z"/>
	<path class="st27" d="M84.1,76l0.8,0.1c0,0.1,0,0.1,0.1,0.2c0.1,0,0.2,0.1,0.3,0.1c0.2,0,0.3,0,0.4-0.1c0.1,0,0.1-0.1,0.1-0.2
		c0-0.1,0-0.2,0-0.3v-0.4c-0.2,0.3-0.4,0.4-0.7,0.4c-0.3,0-0.6-0.1-0.8-0.4c-0.2-0.2-0.2-0.5-0.2-0.8c0-0.4,0.1-0.7,0.3-1
		c0.2-0.2,0.5-0.3,0.7-0.3c0.3,0,0.6,0.1,0.8,0.4v-0.3h0.6v2.2c0,0.3,0,0.5-0.1,0.7c0,0.1-0.1,0.3-0.2,0.3c-0.1,0.1-0.2,0.1-0.4,0.2
		c-0.1,0-0.3,0.1-0.6,0.1c-0.4,0-0.7-0.1-0.9-0.2C84.2,76.5,84.1,76.3,84.1,76C84.1,76.1,84.1,76,84.1,76z M84.7,74.5
		c0,0.3,0.1,0.5,0.2,0.6c0.1,0.1,0.2,0.2,0.4,0.2c0.2,0,0.3-0.1,0.4-0.2s0.2-0.3,0.2-0.6c0-0.3-0.1-0.4-0.2-0.6s-0.2-0.2-0.4-0.2
		c-0.2,0-0.3,0.1-0.4,0.2C84.8,74.1,84.7,74.3,84.7,74.5z"/>
	<path class="st27" d="M63.2,80.4l0.5,0.1c-0.1,0.4-0.3,0.7-0.5,0.9c-0.2,0.2-0.6,0.3-0.9,0.3c-0.4,0-0.7-0.1-0.9-0.2
		c-0.2-0.2-0.4-0.4-0.5-0.7c-0.1-0.3-0.2-0.6-0.2-0.9c0-0.4,0.1-0.7,0.2-0.9c0.1-0.3,0.3-0.5,0.6-0.6c0.3-0.1,0.5-0.2,0.8-0.2
		c0.3,0,0.6,0.1,0.9,0.3c0.2,0.2,0.4,0.4,0.5,0.7l-0.4,0.1c-0.1-0.3-0.2-0.4-0.3-0.5c-0.2-0.1-0.3-0.2-0.6-0.2
		c-0.3,0-0.5,0.1-0.7,0.2c-0.2,0.1-0.3,0.3-0.4,0.5c-0.1,0.2-0.1,0.4-0.1,0.7c0,0.3,0,0.5,0.1,0.8c0.1,0.2,0.2,0.4,0.4,0.5
		c0.2,0.1,0.4,0.2,0.6,0.2c0.3,0,0.5-0.1,0.6-0.2C63,80.9,63.1,80.7,63.2,80.4z"/>
	<path class="st27" d="M65.8,81.3c-0.2,0.1-0.3,0.2-0.5,0.3c-0.1,0.1-0.3,0.1-0.5,0.1c-0.3,0-0.5-0.1-0.6-0.2
		C64.1,81.3,64,81.2,64,81c0-0.1,0-0.2,0.1-0.3c0.1-0.1,0.1-0.2,0.2-0.2c0.1-0.1,0.2-0.1,0.3-0.1c0.1,0,0.2,0,0.4-0.1
		c0.3,0,0.6-0.1,0.8-0.1c0-0.1,0-0.1,0-0.1c0-0.2,0-0.3-0.1-0.4c-0.1-0.1-0.3-0.1-0.5-0.1c-0.2,0-0.3,0-0.4,0.1
		c-0.1,0.1-0.2,0.2-0.2,0.4l-0.4-0.1c0-0.2,0.1-0.3,0.2-0.4c0.1-0.1,0.2-0.2,0.4-0.3c0.2-0.1,0.4-0.1,0.6-0.1c0.2,0,0.4,0,0.5,0.1
		c0.1,0.1,0.2,0.1,0.3,0.2c0.1,0.1,0.1,0.2,0.1,0.3c0,0.1,0,0.2,0,0.4v0.6c0,0.4,0,0.6,0,0.7c0,0.1,0.1,0.2,0.1,0.3h-0.4
		C65.8,81.5,65.8,81.4,65.8,81.3z M65.7,80.4c-0.2,0.1-0.4,0.1-0.7,0.2c-0.2,0-0.3,0.1-0.4,0.1c-0.1,0-0.1,0.1-0.2,0.1
		c0,0.1-0.1,0.1-0.1,0.2c0,0.1,0,0.2,0.1,0.3c0.1,0.1,0.2,0.1,0.4,0.1c0.2,0,0.3,0,0.4-0.1c0.1-0.1,0.2-0.2,0.3-0.3
		c0-0.1,0.1-0.2,0.1-0.4V80.4z"/>
	<path class="st27" d="M66.8,81.6v-2.5h0.4v0.4c0.1-0.2,0.2-0.3,0.3-0.3c0.1-0.1,0.2-0.1,0.3-0.1c0.1,0,0.3,0,0.4,0.1L68,79.6
		c-0.1-0.1-0.2-0.1-0.3-0.1c-0.1,0-0.2,0-0.2,0.1c-0.1,0.1-0.1,0.1-0.2,0.2c0,0.2-0.1,0.3-0.1,0.5v1.3H66.8z"/>
</g>
<g>
</g>
<g>
</g>
<g>
</g>
<g>
</g>
<g>
</g>
<g>
</g>
</svg>
